<?xml version="1.0" standalone="no"?>
<!DOCTYPE svg PUBLIC "-//W3C//DTD SVG 20010904//EN"
 "http://www.w3.org/TR/2001/REC-SVG-20010904/DTD/svg10.dtd">
<svg version="1.0" xmlns="http://www.w3.org/2000/svg"
 width="101.000000pt" height="100.000000pt" viewBox="0 0 101.000000 100.000000"
 preserveAspectRatio="xMidYMid meet">

<g transform="translate(0.000000,100.000000) scale(0.100000,-0.100000)"
fill="#000000" stroke="none">
<path d="M463 904 c-17 -9 -38 -23 -46 -32 -14 -15 -11 -22 24 -62 l38 -44 26
24 26 24 179 -179 c99 -99 182 -180 186 -180 14 0 22 55 13 88 -6 22 -60 83
-177 200 -183 183 -203 195 -269 161z"/>
<path d="M208 663 c-69 -71 -131 -138 -138 -151 -23 -46 -4 -73 168 -244 92
-91 177 -171 189 -177 27 -13 83 -14 103 -1 12 8 -22 46 -167 192 l-183 183
122 122 122 123 -39 40 c-21 22 -42 40 -45 40 -3 0 -62 -57 -132 -127z"/>
<path d="M427 542 l-77 -77 108 -107 c59 -59 120 -112 137 -118 48 -18 96 -4
148 46 l48 45 -137 142 c-75 78 -139 143 -143 145 -3 1 -41 -33 -84 -76z"/>
</g>
</svg>
